<svg width="438" height="438" viewBox="0 0 438 438" fill="none" xmlns="http://www.w3.org/2000/svg">
<path d="M437.39 337.303V78.4268C437.39 58.4908 415.172 46.6001 398.585 57.6588L307.445 118.419L369.05 159.488L369.048 159.491V333.972C369.048 360.552 339.422 376.407 317.306 361.663L191.548 277.824L129.945 318.892L282.168 420.375C348.517 464.608 437.39 417.044 437.39 337.303Z" fill="#111E6C"/>
<path d="M68.3423 277.82V103.339C68.3423 76.7589 97.9663 60.9042 120.084 75.6482L245.842 159.487L307.445 118.419L155.222 16.9362C88.8716 -27.2971 0 20.2668 0 100.008V358.884C0 378.819 22.2177 390.711 38.8049 379.652L129.945 318.892L68.3396 277.823L68.3423 277.82Z" fill="#FABC18"/>
<path d="M191.545 277.823L369.048 159.488V159.491L369.05 159.488L307.445 118.419L245.842 159.487L245.844 159.488L68.3423 277.823V277.82L68.3396 277.823L129.945 318.892L191.548 277.824L191.545 277.823Z" fill="#FF0844"/>
</svg>
