<svg width="438" height="560" viewBox="0 0 438 560" fill="none" xmlns="http://www.w3.org/2000/svg">
<path d="M437.39 337.303V78.4268C437.39 58.4908 415.172 46.6001 398.585 57.6588L307.445 118.419L369.05 159.488L369.048 159.491V333.972C369.048 360.552 339.422 376.407 317.306 361.663L191.548 277.824L129.945 318.892L282.168 420.375C348.517 464.608 437.39 417.044 437.39 337.303Z" fill="#111E6C"/>
<path d="M68.3423 277.82V103.339C68.3423 76.7589 97.9663 60.9042 120.084 75.6482L245.842 159.487L307.445 118.419L155.222 16.9362C88.8716 -27.2971 0 20.2668 0 100.008V358.884C0 378.819 22.2177 390.711 38.8049 379.652L129.945 318.892L68.3396 277.823L68.3423 277.82Z" fill="#FABC18"/>
<path d="M191.545 277.823L369.048 159.488V159.491L369.05 159.488L307.445 118.419L245.842 159.487L245.844 159.488L68.3423 277.823V277.82L68.3396 277.823L129.945 318.892L191.548 277.824L191.545 277.823Z" fill="#FF0844"/>
<path d="M80.6691 537.206V486.52C80.6691 479.699 82.8007 474.093 87.064 469.704C91.5483 465.125 97.3906 462.835 104.591 462.835C111.665 462.835 117.507 465.125 122.118 469.704C126.381 473.935 128.513 479.541 128.513 486.52V532.942L119.512 537.206H119.039V503.857H90.143V532.942L81.1428 537.206H80.6691ZM90.143 495.236H119.039V486.52C119.039 482.288 117.902 478.862 115.628 476.241C112.817 472.988 109.138 471.362 104.591 471.362C100.043 471.362 96.3643 472.988 93.5537 476.241C91.2799 478.862 90.143 482.288 90.143 486.52V495.236ZM152.311 535.311V466.151L161.311 461.888H161.785V526.69H194.233V527.163L190.396 535.311H152.311ZM203.111 537.206V466.151L212.111 461.888H212.584V532.942L203.584 537.206H203.111ZM284.227 495.236V512.573C284.227 519.426 282.095 525.032 277.832 529.39C273.347 533.969 267.505 536.258 260.305 536.258C253.105 536.258 247.262 533.969 242.778 529.39C238.515 525.032 236.383 519.426 236.383 512.573V486.52C236.383 479.667 238.515 474.062 242.778 469.704C247.262 465.125 253.105 462.835 260.305 462.835C267.758 462.835 273.6 465.125 277.832 469.704C282.095 474.283 284.227 479.572 284.227 485.573L275.226 489.836H274.753V486.52C274.753 482.288 273.616 478.862 271.342 476.241C268.531 472.988 264.852 471.362 260.305 471.362C255.757 471.362 252.078 472.988 249.268 476.241C246.994 478.862 245.857 482.288 245.857 486.52V512.573C245.857 516.805 246.994 520.232 249.268 522.853C252.078 526.105 255.757 527.732 260.305 527.732C264.852 527.732 268.531 526.105 271.342 522.853C273.616 520.232 274.753 517.121 274.753 513.521V503.857H258.268V503.384L262.105 495.236H284.227ZM308.025 537.206V486.52C308.025 479.699 310.157 474.093 314.42 469.704C318.904 465.125 324.747 462.835 331.947 462.835C339.052 462.835 344.895 465.125 349.474 469.704C353.737 473.935 355.869 479.541 355.869 486.52V532.942L346.868 537.206H346.395V486.52C346.395 482.288 345.258 478.862 342.984 476.241C340.173 472.988 336.494 471.362 331.947 471.362C327.399 471.362 323.72 472.988 320.91 476.241C318.636 478.862 317.499 482.288 317.499 486.52V532.942L308.499 537.206H308.025Z" fill="#111E6C"/>
</svg>
